<?xml version="1.0" encoding="UTF-8"?>
<svg id="Layer_2" data-name="Layer 2" xmlns="http://www.w3.org/2000/svg" viewBox="0 0 67.32 105">
  <defs>
    <style>
      .cls-1 {
        fill: #7afdd6;
        stroke-width: 0px;
      }
    </style>
  </defs>
  <g id="Layer_1-2" data-name="Layer 1">
    <g>
      <path class="cls-1" d="m0,39.34C0,15.01,17.38,0,35.51,0c20.83,0,31.81,14.64,31.81,35.56,0,3.36-.38,6.71-.78,8.54H17.63c1.51,13.3,10.29,20.86,22.71,20.86,6.59,0,12.24-2.01,17.88-5.43l6.15,10.92c-7.34,4.82-16.63,8.11-26.41,8.11C16.69,78.57,0,64.05,0,39.34Zm51.7-7.2c0-11.53-5.27-18.54-15.81-18.54-8.97,0-16.88,6.53-18.45,18.54h34.26Z"/>
      <path class="cls-1" d="m46.49,93.99c0,6.08-5.07,11.01-11.33,11.01s-11.33-4.93-11.33-11.01,5.94-22.88,12.2-22.88,10.46,16.79,10.46,22.88Z"/>
    </g>
  </g>
</svg>